<?xml version="1.0" encoding="utf-8"?>
<!-- Generator: Adobe Illustrator 24.2.0, SVG Export Plug-In . SVG Version: 6.00 Build 0)  -->
<svg version="1.1" id="圖層_1" xmlns="http://www.w3.org/2000/svg" xmlns:xlink="http://www.w3.org/1999/xlink" x="0px" y="0px"
	 viewBox="0 0 590 385" style="enable-background:new 0 0 590 385;" xml:space="preserve">
<style type="text/css">
	.st0{fill:#245579;}
	.st1{fill:#79A653;}
	.st2{fill:#255679;}
	.st3{fill:#2C5A7E;}
	.st4{fill:#2B5A7D;}
	.st5{fill:#F9FAFB;}
	.st6{fill:#FAFBFC;}
	.st7{fill:#B6B6B6;}
	.st8{fill:#B5B5B5;}
	.st9{fill:#B4B4B4;}
	.st10{fill:#FCFCFC;}
	.st11{fill:#F7F7F7;}
</style>
<path class="st0" d="M284.23,246.5c2.28-9.3,4.11-18.43,2.88-27.87c-1.12-8.56-2.6-17.05-4.41-25.5c-1.08-5.06-2.02-10.3-1.65-15.54
	c0.48-6.8,2.09-13.29,6.67-18.68c1.91-2.25,4.05-4.12,6.82-5.29c3.44-1.46,6.88-2.96,10.16-4.75c13.17-7.16,19.31-20.06,16.78-34.8
	c-0.22-1.29-0.75-1.95-2.04-2.04c-0.5-0.03-0.98-0.2-1.48-0.24c-9.1-0.88-15.63-5.38-19.81-13.57
	c-3.74-7.33-10.69-10.68-17.87-13.59c-2.07-0.84-4.22-1.56-6.4-2.06c-1.65-0.37-2.02-1.17-2.04-2.74
	c-0.1-9.25-0.31-18.49-0.48-27.74c-0.03-1.49,0-2.98,0-5.34c-4.03,3.28-7.47,6.04-10.88,8.84c-3.38,2.78-6.72,5.61-10.49,8.76
	c0-1.3,0-2.09,0-2.88c0-12.75-0.01-25.49,0-38.24c0-5.24,2.24-7.67,7.47-7.68c24.66-0.05,49.32-0.05,73.98,0
	c4.71,0.01,7.51,3.03,7.51,7.72c0.01,18.5,0,36.99,0,55.49c0,5.26,2.46,7.79,7.68,7.79c17.08,0.02,34.16,0.01,51.24,0.01
	c6.53,0,9.05,2.5,9.05,8.96c0,23.66-0.03,47.32,0.03,70.98c0.01,3.59-1.27,6.21-4.44,7.91c-0.67,0.36-1.28,0.56-2.07,0.56
	c-17.91-0.05-35.82-0.08-53.73-0.06c-5.31,0-7.75,2.51-7.75,7.74c0,18.75,0,37.49-0.01,56.24c0,4.42-2.82,7.56-7.13,7.58
	C316.02,246.54,300.19,246.5,284.23,246.5z"/>
<path class="st1" d="M264.33,63.41c0,7.48,0.04,14.97-0.03,22.45c-0.02,1.69,0.41,2.46,2.25,2.79c4.01,0.72,7.91,1.94,11.72,3.42
	c6.31,2.45,11.52,6.04,14.81,12.29c4.06,7.72,10.47,12.63,19.23,14.04c1.74,0.28,2.12,1.07,2.09,2.66
	c-0.2,8.52-4.21,14.89-11.02,19.67c-3.15,2.21-6.68,3.76-10.24,5.15c-11.04,4.32-16.1,13.22-18.62,24.07
	c-2.27,9.81-0.29,19.45,1.67,29.01c1.76,8.6,3.42,17.21,3.55,25.98c0.09,6.12-0.87,12.19-2.4,18.15c-0.56,2.17-2.27,2.08-3.74,1.85
	c-3.57-0.56-7.19-0.59-10.76-1.01c-6.3-0.74-12.37-2.34-18.24-4.9c-8.86-3.86-16.88-9.05-24.3-15.12
	c-6.3-5.15-12.13-10.82-17.33-17.2c-6.07-7.45-11.71-15.15-16.66-23.36c-0.92-1.53-1.3-2.5,0.74-3.73
	c6.48-3.9,10.9-9.97,15.36-15.85c5.52-7.28,9.14-15.36,10.83-24.58c1.79-9.74,4.59-19.32,8.26-28.61
	c2.15-5.45,4.26-10.92,7.71-15.65c3.61-4.95,8.02-9.21,12.77-13.14c2.4-1.99,4.43-4.42,6.88-6.41c4.92-4.02,9.73-8.16,14.59-12.25
	C263.73,63.23,264.03,63.32,264.33,63.41z"/>
<path class="st2" d="M226.38,86.56c-4.45,4.54-6.98,9.55-9.27,14.66c-5.11,11.36-8.77,23.24-10.98,35.46
	c-2.08,11.49-7.57,20.92-15.33,29.29c-1.63,1.76-3.2,3.6-4.95,5.25c-1.91,1.81-3.31,1.27-3.75-1.38c-0.16-0.97-0.07-1.99-0.07-2.99
	c0-24.06,0-48.12,0-72.18c0-5.75,2.16-8.06,7.81-8.09C201.74,86.53,213.65,86.56,226.38,86.56z"/>
<path class="st3" d="M328.96,281.06c-5.03,11.98-10.01,23.86-15,35.73c-0.45,1.06-1.01,2.07-1.43,3.14
	c-0.3,0.77-0.86,0.99-1.56,0.92c-0.64-0.06-1.16-0.21-1.48-1.02c-3.2-7.98-6.47-15.94-9.83-24.18c-1.6,2.37-2.16,4.93-3.09,7.29
	c-2.15,5.41-4.07,10.9-6.11,16.35c-0.27,0.72-0.41,1.54-1.57,1.63c-1.31,0.1-1.45-0.78-1.78-1.58c-2.19-5.33-4.39-10.66-6.55-16
	c-2.69-6.63-4.96-13.42-8.23-19.81c-1.31-2.57-1.2-2.71,1.61-2.67c1.48,0.02,3.35-0.64,4.34,0.31c0.83,0.8,0.52,2.68,1.02,3.96
	c2.67,6.97,5.44,13.9,8.18,20.84c0.66,1.66,1.33,3.31,2.04,5.06c2.1-1.45,2.01-3.74,2.75-5.54c2.4-5.85,4.53-11.81,6.65-17.77
	c0.34-0.96,0.57-1.66,1.67-1.72c1.18-0.06,1.16,0.87,1.47,1.63c3.14,7.68,6.32,15.35,9.5,23.02c0.12,0.29,0.37,0.53,0.67,0.95
	c1.86-2.08,2.21-4.74,3.22-7.05c2.48-5.68,4.69-11.47,7.01-17.22c0.33-0.82,0.62-1.66,0.91-2.49
	C324.73,280.87,324.73,280.87,328.96,281.06z"/>
<path class="st4" d="M360.5,319.85c0.98-12.91,0.97-25.81,0-38.89c4.68,0.59,9.59-1.26,14.58-0.02c4.28,1.06,7.85,4.09,8.34,7.83
	c0.62,4.8-0.34,9.25-4.78,11.93c-1.93,1.16-1.64,1.81-0.56,3.28c3.2,4.31,6.25,8.72,9.38,13.09c0.73,1.02,1.64,1.86,2.76,2.91
	c-2.32,0-4.64,0-6.97,0c-0.33,0-0.55-0.11-0.73-0.48c-2.61-5.38-6.67-9.79-9.96-14.72c-0.7-1.05-4.97-1.93-5.97-1.31
	c-0.42,0.26-0.45,0.67-0.46,1.07c-0.09,5.07,0.01,10.13,0.61,15.3C364.63,319.85,362.43,319.85,360.5,319.85z M370.16,282.43
	c-4.05,0.06-4.05,0.06-4.05,4.16c0,4.23,0,8.47,0,12.7c0,0.8-0.17,1.53,1.06,1.84c4.3,1.12,8.97-1.31,10.38-5.55
	c0.67-2.01,0.72-4.07,0.51-6.15C377.59,284.66,374.97,282.36,370.16,282.43z"/>
<path class="st3" d="M233.54,319.99c4.22-8.77,8.1-17.31,11.74-25.96c1.79-4.25,3.87-8.38,5.85-12.56c0.33-0.69,0.43-1.55,1.62-1.52
	c1.14,0.03,1.55,0.58,1.96,1.5c3.73,8.41,7.53,16.79,11.24,25.21c1.95,4.42,3.84,8.86,6.24,13.07c-0.22,0.12-0.35,0.24-0.48,0.24
	c-2.08,0-4.57,0.67-6.11-0.25c-1.2-0.72-1.16-3.44-1.8-5.22c-0.38-1.06-1.34-1.99-1.48-3.05c-0.63-4.47-3.59-4.7-7.17-4.45
	c-3.31,0.23-6.66,0.14-9.99,0.03c-1.41-0.05-2.2,0.47-2.61,1.72c-1.16,3.49-3.55,6.55-3.6,10.42c-0.01,0.71-0.39,0.83-0.93,0.83
	C236.57,319.99,235.11,319.99,233.54,319.99z M251.9,287.31c-2.41,5.54-4.61,10.55-6.75,15.59c-0.28,0.65-1.28,1.78,0.64,1.77
	c4.47-0.02,8.94-0.01,13.79-0.01C256.96,298.76,254.53,293.26,251.9,287.31z"/>
<path class="st3" d="M209.54,280.96c4.36,0.46,8.89-1.08,13.45-0.26c5.34,0.95,8.87,4.33,9.51,8.8c0.86,5.98-1.53,10.95-6.39,13.63
	c-2.88,1.59-5.94,2-9.13,1.8c-1.14-0.07-1.88-0.01-1.87,1.49c0.04,4.46,0.12,8.92,0.69,13.46c-2.15,0-4.3,0-6.3,0
	C210.53,307,210.47,294.11,209.54,280.96z M215.14,292.79c0,2.66,0.09,5.33-0.04,7.99c-0.08,1.58,0.63,1.99,2,2.12
	c4.52,0.45,8.2-1.97,9.51-6.31c0.74-2.44,0.72-4.93,0.37-7.41c-0.76-5.42-5.53-8.27-10.72-6.52c-1.03,0.35-1.15,0.99-1.14,1.89
	C215.16,287.29,215.14,290.04,215.14,292.79z"/>
<path class="st3" d="M352.97,280.83c-0.87,3.3-0.84,3.09-4.16,2.71c-2.95-0.34-5.96-0.14-8.94-0.18c-0.98-0.01-1.26,0.51-1.25,1.42
	c0.03,4.08,0.02,8.16,0.04,12.23c0,0.77,0.03,1.51,1.2,1.39c2.89-0.28,5.78-0.53,8.67-0.67c0.64-0.03,1.97-1.1,1.93,0.68
	c-0.02,1.2,0.26,2.92-1.68,2.88c-3.32-0.06-6.63-0.36-10.16-0.57c0,5.18,0.01,10.41-0.01,15.64c-0.01,1.33,0.89,1.13,1.71,1.14
	c3.75,0.04,7.42-0.54,11.09-1.27c0.64-0.13,2.04-0.89,1.9,0.41c-0.13,1.15,0.62,3.39-1.68,3.42c-5.99,0.07-11.98-0.05-17.97-0.06
	c-0.97,0-0.79-0.26-0.7-1.08c1.23-10.83,0.51-21.71,0.57-32.57c0.01-1.81-1.59-4.12,0.01-5.26c1.22-0.88,3.54-0.25,5.37-0.26
	C343.57,280.82,348.23,280.83,352.97,280.83z"/>
<path class="st5" d="M370.16,282.43c4.81-0.07,7.43,2.24,7.91,7.01c0.21,2.07,0.16,4.13-0.51,6.15c-1.42,4.24-6.08,6.67-10.38,5.55
	c-1.23-0.32-1.06-1.05-1.06-1.84c-0.01-4.23,0-8.47,0-12.7C366.11,282.49,366.11,282.49,370.16,282.43z"/>
<path class="st6" d="M251.9,287.31c2.63,5.95,5.06,11.45,7.68,17.36c-4.85,0-9.32-0.01-13.79,0.01c-1.92,0.01-0.91-1.12-0.64-1.77
	C247.29,297.87,249.49,292.85,251.9,287.31z"/>
<path class="st5" d="M215.14,292.79c0-2.75,0.02-5.49-0.01-8.24c-0.01-0.9,0.1-1.55,1.14-1.89c5.19-1.75,9.96,1.1,10.72,6.52
	c0.35,2.48,0.36,4.97-0.37,7.41c-1.31,4.34-4.99,6.76-9.51,6.31c-1.37-0.14-2.08-0.55-2-2.12
	C215.23,298.11,215.14,295.45,215.14,292.79z"/>
<g>
	<path class="st7" d="M443.4,356.12c-1.08,3.23-1.93,5.89-2.86,8.53c-0.28,0.79-0.33,1.83-1.68,1.78c-1.23-0.05-1.44-0.82-1.74-1.73
		c-1.09-3.3-2.28-6.57-3.3-9.89c-0.15-0.5-1.24-1.41,0.07-1.82c0.99-0.31,1.98-0.16,2.35,1.16c0.65,2.31,1.36,4.6,2.07,6.89
		c0.12,0.38,0.36,0.73,0.63,1.26c1.42-2.48,1.86-5.12,2.81-7.56c0.32-0.81,0.33-1.82,1.62-1.85c1.4-0.04,1.57,0.98,1.86,1.92
		c0.82,2.58,1.62,5.17,2.63,8.43c0.98-3.34,1.71-5.99,2.53-8.6c0.29-0.91,0.58-2.06,1.98-1.7c1.68,0.43,0.52,1.5,0.33,2.16
		c-0.94,3.26-1.99,6.49-3.03,9.72c-0.28,0.88-0.58,1.73-1.84,1.6c-1.13-0.12-1.38-0.75-1.66-1.77
		C445.44,361.96,444.47,359.35,443.4,356.12z"/>
	<path class="st8" d="M232.93,352.89c1.66,0.16,3.55,0.31,5.44,0.54c0.99,0.12,1.17,0.88,0.41,1.29c-0.8,0.43-0.99,0.86-1.05,1.7
		c-0.25,3.44-1.82,4.86-5.21,4.99c-0.78,0.03-2.1-0.61-2.14,0.85c-0.03,1.29,1.2,1.06,2.08,1.16c1.23,0.14,2.46,0.31,3.68,0.48
		c1.31,0.18,2.33,0.7,2.85,2.06c0.53,1.41-0.11,2.44-0.98,3.37c-2.23,2.38-8.06,3.13-10.51,0.07c-0.52-0.65-1.05-1.55-0.63-1.97
		c1.79-1.75,0.75-4.19,1.74-6.05c0.32-0.61,0.31-0.87-0.04-1.46C226.18,355.84,227.96,352.87,232.93,352.89z M235.75,357.05
		c-0.25-1.63-1.15-2.63-2.94-2.65c-1.76-0.02-2.94,0.85-2.96,2.61c-0.01,1.73,1.17,2.78,2.87,2.77
		C234.36,359.77,235.56,358.95,235.75,357.05z M232.82,365.36c-0.9,0.14-1.76-0.18-2.53,0.3c-0.76,0.48-1.31,1.15-1.01,2.07
		c0.51,1.59,1.92,1.69,3.26,1.66c1.69-0.03,4.07,0.33,4.1-2.05C236.67,365.03,234.21,365.78,232.82,365.36z"/>
	<path class="st8" d="M145.31,358.02c0.21-10.38,8.4-12.73,14.16-9.92c0.64,0.31,1.95,0.55,1.47,1.86c-0.57,1.55-1.64,0.7-2.45,0.32
		c-4.87-2.34-8.72,0.05-10,3.67c-0.99,2.8-0.04,7.1,1.91,8.83c2.32,2.05,5.08,2.23,8.5,0.18c1.09-0.65,1.57-0.27,2,0.43
		c0.62,0.99-0.37,1.25-0.96,1.62c-3.14,1.97-6.42,2.67-9.84,0.79C146.64,363.88,145.6,360.58,145.31,358.02z"/>
	<path class="st8" d="M402.17,365.52c0,1.51-0.01,2.75,0,3.99c0.01,0.9-0.29,1.39-1.29,1.38c-1.06-0.01-1.19-0.64-1.19-1.47
		c0.01-5.07,0.01-10.13,0-15.2c0-0.73,0.39-1.7,1-1.24c1.77,1.33,3.23-0.04,4.78-0.25c2.38-0.32,4.31,0.48,5.22,2.67
		c1.75,4.19,1.06,9.31-3.35,10.95C405.44,367.08,405.04,367.16,402.17,365.52z M409.18,359.45c0.02-3.71-2.41-5.8-5.18-4.44
		c-2.03,1-2.77,7.5-1,8.92c0.31,0.25,0.72,0.39,1.11,0.51C406.91,365.32,409.16,363.11,409.18,359.45z"/>
	<path class="st8" d="M271.56,352.89c3.97-0.64,6.6,3.24,6.64,6.69c0.06,4.09-2.69,6.83-6.78,6.82c-4.11-0.01-6.19-2.32-6.18-6.87
		C265.24,355.05,267.3,352.89,271.56,352.89z M267.74,359.54c-0.02,3.19,1.33,4.91,3.88,4.94c2.52,0.03,4.07-1.81,4.07-4.84
		c0-2.97-1.65-5.09-3.97-5.09C269.26,354.55,267.76,356.43,267.74,359.54z"/>
	<path class="st8" d="M178.24,361.51c0,0.88,0,1.54,0,2.21c-0.01,1.72,0.35,3.75-2.56,2c-1.15-0.69-2.25,0.67-3.41,0.96
		c-2.13,0.53-4.32-0.59-4.91-2.65c-0.51-1.79,0.65-3.78,2.68-4.41c1.1-0.34,2.25-0.53,3.4-0.7c0.95-0.14,2.3,0.14,2.23-1.3
		c-0.06-1.3-0.56-2.66-2.27-2.74c-1.15-0.05-2.31-0.13-3.31,0.73c-0.45,0.39-1.17,0.47-1.58-0.05c-0.44-0.56-0.05-1.1,0.41-1.5
		c1.7-1.47,3.67-1.72,5.78-1.18c1.77,0.46,2.68,1.61,3.17,3.4C178.35,358.11,178.13,359.91,178.24,361.51z M172.26,364.89
		c2.06-0.02,3.48-1.29,3.53-3.01c0.03-1.25-0.56-1.67-1.66-1.46c-1.74,0.33-3.92,0.25-4.23,2.6
		C169.72,364.44,170.96,364.9,172.26,364.89z"/>
	<path class="st8" d="M428.2,361.18c0,1.05,0,1.8,0,2.55c0,1.75,0.33,3.74-2.57,1.99c-1.14-0.69-2.24,0.68-3.41,0.97
		c-2.04,0.5-4.11-0.48-4.81-2.43c-0.65-1.81,0.36-3.85,2.38-4.53c1.17-0.39,2.4-0.6,3.62-0.8c0.95-0.15,2.29,0.14,2.21-1.31
		c-0.07-1.3-0.56-2.66-2.28-2.73c-1.15-0.05-2.31-0.12-3.3,0.74c-0.45,0.39-1.17,0.47-1.58-0.06c-0.43-0.56-0.04-1.11,0.43-1.51
		c1.71-1.46,3.67-1.72,5.78-1.16c1.77,0.46,2.67,1.62,3.16,3.41C428.29,358.04,428.09,359.76,428.2,361.18z M422.34,364.89
		c1.76,0.05,3.33-1.19,3.41-2.86c0.05-1.09-0.23-1.67-1.5-1.65c-2.3,0.03-4.57,1.31-4.43,2.73
		C419.94,364.4,420.85,364.89,422.34,364.89z"/>
	<path class="st9" d="M341.23,359.53c0.01-3.64,1.84-6.23,4.54-6.62c3.74-0.54,6.17,0.85,7.2,4.1c0.5,1.58,0.31,2.55-1.71,2.51
		c-1.98-0.04-3.96,0.26-5.95,0.27c-1.64,0.01-1.8,0.8-1.37,2.07c0.74,2.15,3.12,3.21,5.5,2.41c0.54-0.18,1.02-0.57,1.56-0.74
		c0.59-0.19,1.21-0.07,1.49,0.56c0.33,0.73-0.26,1.02-0.77,1.31c-2.4,1.35-4.84,2.11-7.44,0.52
		C341.81,364.39,341.06,362.07,341.23,359.53z M347.15,358.46c1.13-0.79,3.41,1.13,3.53-1.43c0.09-1.83-1.43-2.64-3.26-2.63
		c-1.99,0-3.46,1.24-3.43,2.91C344.01,359.46,346.13,357.73,347.15,358.46z"/>
	<path class="st9" d="M306.73,359.73c0.01-3.84,1.85-6.43,4.55-6.82c3.74-0.54,6.18,0.85,7.2,4.11c0.5,1.59,0.29,2.57-1.73,2.49
		c-1.98-0.07-3.96,0-5.95,0.23c-1.84,0.21-1.78,1.05-1.23,2.34c0.91,2.12,3,2.98,5.38,2.19c0.39-0.13,0.76-0.32,1.12-0.53
		c0.75-0.43,1.52-0.48,1.92,0.35c0.4,0.85-0.43,1.06-0.99,1.4c-2.43,1.5-4.94,1.93-7.43,0.3
		C307.27,364.29,306.54,361.98,306.73,359.73z M312.53,358.43c1.18-0.68,3.37,1.04,3.64-1.28c0.21-1.82-1.3-2.72-3.13-2.75
		c-1.76-0.03-3.97,1.66-3.65,3.02C309.83,359.23,311.51,357.87,312.53,358.43z"/>
	<path class="st7" d="M385.11,353.13c-2.41,5.5-4.8,10.87-7.12,16.27c-0.63,1.46-1.6,1.72-3.37,1.24c3.82-3.69,1.87-7.27,0.11-10.88
		c-0.76-1.56-1.47-3.15-2.15-4.75c-0.29-0.66-1.08-1.59-0.09-2.03c1-0.45,2.09-0.15,2.59,1.17c0.73,1.93,1.54,3.84,2.38,5.73
		c0.25,0.56,0.37,1.42,1.25,1.33c0.69-0.06,0.78-0.8,0.99-1.3c0.79-1.82,1.56-3.66,2.27-5.51
		C382.49,353.09,383.35,352.61,385.11,353.13z"/>
	<path class="st9" d="M209.73,359.53c0-1.75,0.02-3.5,0-5.25c-0.01-1.29,0.71-1.83,1.68-1.1c0.91,0.69,1.39,0.44,2.35,0.13
		c3.72-1.2,6.98-0.44,7.05,4.32c0.04,2.33,0.02,4.66,0.01,7c0,0.81,0.15,1.79-1.17,1.72c-1.15-0.06-0.96-0.95-0.97-1.66
		c-0.03-2.25,0.17-4.52-0.1-6.74c-0.43-3.5-2.42-3.5-4.78-2.77c-1,0.31-1.73,1.12-1.65,2.48c0.13,2.07,0.1,4.17,0,6.24
		c-0.04,0.92,0.68,2.43-1.15,2.46c-2.04,0.04-1.17-1.62-1.26-2.59C209.63,362.37,209.73,360.95,209.73,359.53z"/>
	<path class="st8" d="M323.46,353.11c1.74-0.59,2.62-0.07,3.18,1.49c0.93,2.6,2.05,5.14,3.34,8.3c1.38-3.32,2.6-5.98,3.58-8.73
		c0.4-1.12,0.99-1.52,1.98-1.22c1.45,0.43,0.43,1.39,0.2,1.98c-1.3,3.39-2.66,6.76-4.09,10.1c-0.68,1.6-2.63,1.96-3.21,0.6
		C326.68,361.51,325.11,357.29,323.46,353.11z"/>
	<path class="st7" d="M254.24,360.59c0-1.08-0.02-2.16,0.01-3.24c0.03-1.26,0.21-2.55-1.66-2.65c-0.4-0.02-0.72-0.4-0.75-0.87
		c-0.03-0.5,0.25-0.84,0.71-0.81c1.77,0.13,1.64-1.07,1.77-2.27c0.28-2.75,2.07-4.12,4.8-3.82c0.68,0.08,1.43,0.17,1.4,1.05
		c-0.03,0.7-0.66,0.9-1.28,0.89c-0.89-0.01-1.64,0.23-2.15,1.01c-0.96,1.45-0.31,2.89,1.39,3.09c0.69,0.08,1.67-0.24,1.71,0.9
		c0.06,1.37-1.07,1.05-1.8,1.01c-1.36-0.07-1.7,0.56-1.67,1.79c0.06,2.66,0.02,5.32,0.01,7.98c0,0.82,0.14,1.71-1.15,1.76
		c-1.44,0.06-1.33-0.89-1.33-1.82C254.24,363.25,254.24,361.92,254.24,360.59z"/>
	<path class="st8" d="M360.59,352.93c0.56-0.02,0.94,0.11,1.08,0.58c0.4,1.34,1.05,0.72,1.58,0.16c0.82-0.85,1.83-1.12,2.91-0.95
		c0.63,0.1,1.6,0.03,1.56,1.18c-0.03,0.94-0.6,1.26-1.41,1.44c-4.13,0.96-4.12,0.97-4.12,5.09c0,1.5-0.01,2.99,0,4.49
		c0.01,0.84-0.17,1.45-1.2,1.47c-1,0.02-1.28-0.5-1.27-1.39c0.02-3.57,0-7.14,0.01-10.72C359.72,353.62,359.69,352.89,360.59,352.93
		z"/>
	<path class="st8" d="M185.24,359.51c0-1.74,0.01-3.49,0-5.23c-0.01-1.29,1.08-1.96,1.61-1.09c1.13,1.86,1.6,0.6,2.51-0.01
		c0.63-0.42,1.5-0.75,2.35-0.47c0.64,0.21,1.59,0.06,1.53,1.22c-0.05,0.95-0.63,1.24-1.43,1.42c-4.1,0.92-4.1,0.93-4.1,5.11
		c0,1.5-0.01,2.99,0,4.49c0.01,0.86-0.2,1.44-1.23,1.45c-1.02,0.01-1.26-0.54-1.25-1.41C185.25,363.16,185.24,361.33,185.24,359.51z
		"/>
	<path class="st8" d="M284.72,359.46c0-1.74,0.02-3.49-0.01-5.23c-0.02-1.13,1.01-1.84,1.45-1.14c1.24,1.93,1.9,0.55,2.94-0.03
		c0.56-0.32,1.35-0.66,2.13-0.34c0.64,0.26,1.58,0.12,1.48,1.27c-0.08,0.95-0.68,1.21-1.48,1.38c-4.05,0.86-4.05,0.86-4.05,4.91
		c0,1.58-0.02,3.16,0,4.73c0.01,0.89-0.27,1.41-1.27,1.4c-1.05-0.01-1.21-0.62-1.2-1.46C284.73,363.11,284.72,361.28,284.72,359.46z
		"/>
	<path class="st7" d="M199.32,359.88c0-1.82,0.02-3.64-0.01-5.46c-0.01-0.98,0.24-1.58,1.38-1.53c1.11,0.05,1.1,0.78,1.1,1.55
		c0,3.47,0,6.94,0,10.42c0,0.78-0.01,1.49-1.11,1.53c-1.16,0.04-1.38-0.59-1.37-1.55C199.34,363.19,199.32,361.54,199.32,359.88z"/>
	<path class="st7" d="M202.25,348.59c-0.15,0.95-0.75,1.68-1.73,1.67c-0.95-0.01-1.75-0.68-1.69-1.71c0.05-0.92,0.54-1.7,1.71-1.66
		C201.6,346.94,202.21,347.43,202.25,348.59z"/>
	<path class="st7" d="M461.69,364.8c-0.02,1.32-0.97,1.84-1.79,1.92c-1.03,0.1-1.54-0.84-1.58-1.84c-0.04-1.01,0.51-1.5,1.55-1.5
		C460.95,363.39,461.62,363.79,461.69,364.8z"/>
	<path class="st5" d="M235.75,357.05c-0.19,1.9-1.4,2.71-3.02,2.73c-1.71,0.01-2.89-1.03-2.87-2.77c0.01-1.76,1.2-2.62,2.96-2.61
		C234.6,354.42,235.5,355.42,235.75,357.05z"/>
	<path class="st10" d="M232.82,365.36c1.38,0.42,3.85-0.33,3.82,1.99c-0.03,2.38-2.41,2.02-4.1,2.05c-1.34,0.03-2.75-0.07-3.26-1.66
		c-0.29-0.92,0.25-1.59,1.01-2.07C231.06,365.17,231.92,365.5,232.82,365.36z"/>
	<path class="st10" d="M409.18,359.45c-0.02,3.66-2.27,5.87-5.06,4.98c-0.39-0.12-0.8-0.26-1.11-0.51c-1.78-1.42-1.04-7.92,1-8.92
		C406.77,353.65,409.21,355.74,409.18,359.45z"/>
	<path class="st10" d="M267.74,359.54c0.02-3.11,1.52-4.99,3.99-4.99c2.32,0,3.97,2.13,3.97,5.09c0,3.02-1.56,4.87-4.07,4.84
		C269.07,364.45,267.72,362.73,267.74,359.54z"/>
	<path class="st6" d="M172.26,364.89c-1.3,0.01-2.55-0.45-2.36-1.87c0.31-2.35,2.49-2.27,4.23-2.6c1.09-0.21,1.69,0.21,1.66,1.46
		C175.75,363.6,174.33,364.87,172.26,364.89z"/>
	<path class="st6" d="M422.34,364.89c-1.48,0-2.4-0.49-2.52-1.79c-0.14-1.42,2.13-2.7,4.43-2.73c1.27-0.02,1.55,0.56,1.5,1.65
		C425.66,363.7,424.09,364.95,422.34,364.89z"/>
	<path class="st11" d="M347.15,358.46c-1.02-0.73-3.13,1-3.16-1.15c-0.02-1.68,1.44-2.91,3.43-2.91c1.82,0,3.34,0.8,3.26,2.63
		C350.55,359.58,348.27,357.67,347.15,358.46z"/>
	<path class="st11" d="M312.53,358.43c-1.02-0.56-2.7,0.8-3.13-1.01c-0.32-1.35,1.89-3.05,3.65-3.02c1.83,0.03,3.34,0.93,3.13,2.75
		C315.9,359.47,313.72,357.75,312.53,358.43z"/>
</g>
</svg>
