<?xml version="1.0" encoding="utf-8"?>
<!-- Generator: Adobe Illustrator 24.2.0, SVG Export Plug-In . SVG Version: 6.00 Build 0)  -->
<svg version="1.1" id="圖層_1" xmlns="http://www.w3.org/2000/svg" xmlns:xlink="http://www.w3.org/1999/xlink" x="0px" y="0px"
	 viewBox="0 0 1280 382.92" style="enable-background:new 0 0 1280 382.92;" xml:space="preserve">
<style type="text/css">
	.st0{fill:#FFFFFF;}
</style>
<path class="st0" d="M74.63,157.86c15.14-1.16,30.05-2.33,44.97-3.45c21.46-1.61,42.93-3.26,64.4-4.73c3.69-0.25,4-1.37,2.75-4.58
	c-3.56-9.1-6.52-18.44-10.28-27.45c-2.01-4.81-0.45-5.47,3.97-6.09c22.63-3.14,45.2-6.75,67.83-9.89c3.54-0.49,4.7-1.91,5.69-5.06
	c7.73-24.7,15.74-49.32,20.42-74.85c0.13-0.71,0.51-1.38,0.86-2.31c1.9,0.91,2.3,2.64,3.06,4c4.04,7.19,7.69,14.62,12.06,21.6
	c11.73,18.71,20.16,38.68,24.35,60.39c0.56,2.89,2.07,5.29,3.8,7.65c15.96,21.87,31.86,43.8,47.81,65.68
	c1.59,2.19,2.88,4.46,3.76,7.06c9.09,26.87,18.52,53.62,27.3,80.59c3.81,11.7,3.93,24.2,5.76,36.34c2.8,18.6,4.96,37.3,7.69,55.92
	c0.53,3.59-0.39,4.22-3.66,4.21c-31.92-0.09-63.83-0.04-95.75-0.09c-1.52,0-3.86,0.94-4.13-1.73c-0.26-2.54,2.02-2.28,3.63-2.67
	c4.66-1.12,9.27-2.59,13.99-3.32c13.93-2.16,26.17-8.46,38.31-15.06c1.34-0.73,2.46-1.58,3.35-2.98
	c7.09-11.05,8.22-23.26,7.29-35.91c-0.11-1.48-0.81-2.5-1.78-3.46c-0.96-0.94-1.85-1.97-2.9-2.8
	c-12.54-9.95-21.07-22.55-25.15-38.08c-0.88-3.34-3.15-5.31-5.82-7.42c-11.56-9.17-24.23-13.95-39.25-12.64
	c-7.42,0.65-14.98-0.43-22.47-0.36c-3.45,0.03-4.47-0.97-4.76-4.49c-1.32-16.46-3.02-32.9-4.6-49.34c-0.1-1.08,0.18-2.37-1.19-3.04
	c-1.75,1-2.38,2.91-3.37,4.49c-12.62,20.18-25.14,40.41-37.83,60.54c-2.7,4.28-4.49,8.79-5.91,13.62
	c-8.97,30.41-16.22,61.17-19.77,92.73c-0.23,2.01-1.04,3.95-1.77,6.65c0-18.87,0-36.92,0-54.98c0-8.14-0.01-8.04-8.43-8.53
	c-14.01-0.82-28-1.9-42.01-2.65c-10.88-0.58-19.82-7.01-29.95-9.56c-9.86-2.48-13.7-8.29-15.94-17.92
	C92.74,228.59,83.57,193.54,74.63,157.86z"/>
<path class="st0" d="M811.54,172.03c-7.73,22.2-15.04,42.22-21.55,62.5c-1.94,6.05-4.66,8.45-10.78,7.44
	c-2.06-0.34-4.27-0.36-6.31,0c-7.09,1.25-9.53-2.1-11.38-8.69c-7.29-26.05-15.3-51.9-23.11-77.8c-2.19-7.27-4.21-14.58-13.97-15.4
	c-4.57-0.38-2.38-4.72-2.74-7.36c-0.51-3.78,1.84-4.33,5.03-4.31c17.19,0.1,34.37,0.11,51.56,0c3.7-0.02,5.65,0.93,5.37,5.06
	c-0.23,3.32,0.43,6.16-4.64,6.89c-10.89,1.56-12.44,3.81-9.86,14.17c4.71,18.88,9.94,37.63,15.29,57.68
	c7.52-26.38,17.36-50.57,25.75-75.26c1.83-5.39,4.02-7.41,9.93-7.53c6.04-0.12,7.49,2.76,8.95,7.45c7.75,24.95,17.16,49.37,24,76.01
	c5.57-19.32,11.06-37.34,15.91-55.52c3.13-11.72,1.56-14.19-10.28-16.93c-5.14-1.19-3.72-4.49-4-7.53
	c-0.36-3.81,1.92-4.47,5.06-4.45c12.97,0.06,25.93,0.12,38.9-0.03c3.57-0.04,5.11,1.33,4.58,4.75c-0.4,2.58,1.8,6.8-3.23,6.88
	c-9.79,0.16-12.33,7.51-14.66,14.68c-8.58,26.29-17.14,52.59-25.12,79.06c-1.88,6.23-4.25,9.36-10.93,8.17
	c-6.49-1.16-14.46,3.72-17.59-7.99C826.26,213.67,818.79,193.93,811.54,172.03z"/>
<path class="st0" d="M321.49,305.09c-0.51,4.39,2.33,11.44-1.12,14.51c-2.95,2.62-9.85,0.89-15,0.93c-9.3,0.07-9.3,0.02-9.3,9.39
	c0,12.5,0,12.5-12.51,12.5c-4.23,0-8.47-0.18-12.69,0.06c-3.12,0.17-3.98-1.06-3.86-3.99c0.19-4.61-0.14-9.23,0.11-13.83
	c0.19-3.4-1.15-4.28-4.34-4.16c-5.76,0.21-11.54-0.06-17.3,0.11c-2.72,0.08-3.69-0.76-3.64-3.57c0.15-8.45,0.19-16.92-0.01-25.37
	c-0.08-3.29,1.38-3.78,4.13-3.7c5.19,0.15,10.41-0.31,15.56,0.14c4.86,0.43,5.89-1.56,5.61-5.89c-0.33-5.17,0.08-10.38-0.13-15.56
	c-0.13-3.1,1.02-3.94,3.98-3.86c7.11,0.18,14.23,0.21,21.34-0.01c3.18-0.1,3.89,1.15,3.8,4.03c-0.18,5.76,0.08,11.54-0.1,17.3
	c-0.1,3,0.9,4.06,3.94,3.95c5.76-0.2,11.54,0.1,17.3-0.11c3.17-0.12,4.52,0.75,4.3,4.14C321.29,296.09,321.49,300.14,321.49,305.09z
	"/>
<path class="st0" d="M511.34,91.15c11.86,0.6,26.35-1.06,40.7,1.92c23.99,4.99,36.8,18.55,37.79,40.46
	c1.03,22.75-11.9,40.33-34.45,46.93c-9.04,2.65-18.31,4.1-27.67,3.51c-6.32-0.4-7.66,2.13-7.34,7.76c0.41,7.21,0.07,14.47,0.11,21.7
	c0.07,15.44,1.6,16.9,17.07,17.39c2.79,0.09,6.9-1.92,7.17,3.91c0.24,5.1-0.56,7.45-6.65,7.33c-21.41-0.41-42.82-0.19-64.24-0.13
	c-3.76,0.01-6.99,0.47-6.89-5.29c0.09-4.94,1.82-5.86,6.33-6.01c11.3-0.36,13.54-2.82,13.57-14.29c0.09-33.47,0.09-66.94,0-100.4
	c-0.03-10.86-2.3-13.19-13.17-13.51c-4.05-0.12-6.72-0.2-6.74-5.62c-0.02-5.29,2.36-5.78,6.56-5.71
	C485.25,91.27,497.01,91.15,511.34,91.15z M520.47,137.42c0,9.64-0.04,19.28,0.03,28.92c0.02,2.24-0.63,4.6,2.98,5.45
	c11.07,2.6,24.46-4.67,28.28-15.86c3.09-9.05,2.67-18.43,2.03-27.75c-1.22-17.45-10.4-25.26-27.84-24.63
	c-4.44,0.16-5.64,1.7-5.54,5.85C520.63,118.74,520.47,128.08,520.47,137.42z"/>
<path class="st0" d="M670.7,225.9c-9.63,12.92-20.78,19.21-35.77,17.94c-15.95-1.35-26.56-10.66-29.35-26.87
	c-3.01-17.5,3.68-30.7,18.8-36.76c12.3-4.93,25.3-5.5,38.28-5.27c5.51,0.1,7.61-1.45,7.05-7.12c-0.63-6.26,0.16-12.6-1.53-18.86
	c-1.59-5.92-4.67-9.7-11.01-10.07c-6.31-0.37-10.05,3.27-12.53,8.57c-0.5,1.08-0.34,2.62-1.06,3.41
	c-2.87,3.12,2.84,10.65-5.78,10.78c-12.24,0.18-22.1-4.14-23.58-11.2c-1.63-7.79,1.79-14.13,8.6-17.26
	c21.27-9.79,43.13-10.58,64.65-0.96c8.6,3.85,12.34,12.08,13.43,21.24c2.14,18.04,0.32,36.17,1.08,54.24
	c0.39,9.28-3.51,20.81,11.56,23.43c3.32,0.58,1.28,5.3,1.49,8.1c0.25,3.44-2.64,2.59-4.53,2.61c-9.66,0.08-19.32-0.17-28.97,0.13
	c-4.35,0.13-6.64-1.13-7.38-5.58C673.65,233.51,672.33,230.74,670.7,225.9z M669.66,196.35c-2.07-2.79,3.77-9.08-3.32-10.4
	c-17.08-3.17-29.5,8.12-28.46,25.81c0.42,7.14,0.78,14.98,10.5,16.49c7.44,1.15,14.97-3.51,18.32-11.73
	C669.24,210.3,669.67,203.66,669.66,196.35z"/>
<path class="st0" d="M980.1,187.61c-9.66,0-19.31,0.13-28.96-0.06c-3.75-0.07-5.68,0.75-4.91,4.98c0.65,3.54,0.64,7.22,1.4,10.73
	c2.4,11.11,6.86,21.26,19.17,23.82c12.83,2.67,24.55-0.41,33.5-10.88c1.26-1.47,1.73-4.43,4.14-3.86c2.36,0.56,3.52,2.87,4.2,5.41
	c2.13,7.91-1.32,13.5-7.28,17.92c-31.59,23.43-82.06,2.7-87.08-36.1c-2.42-18.73-1.79-37.46,9.34-53.99
	c11.22-16.66,33.8-23.44,57.62-17.7c18.94,4.57,30.45,18.32,32.93,39.36c2.41,20.36,2.41,20.36-17.79,20.36
	C990.96,187.61,985.53,187.61,980.1,187.61z M946.35,169.1c-0.77,3.27,0.78,5.7,6.29,5.18c3.88-0.37,7.83-0.07,11.75-0.07
	c20.19,0,22.57-3.66,15.12-23.23c-0.21-0.56-0.29-1.18-0.54-1.72c-5.29-11.64-18.56-12.86-25.98-2.31
	C948.69,153.05,947.4,160.17,946.35,169.1z"/>
<path class="st0" d="M1076.19,144.26c7.99-17.25,22.4-20.27,39.28-17.14c7.73,1.43,13.49,5.27,14.24,13.96
	c0.78,9.08-2.42,15.8-11.24,19.51c-2.84,1.19-5.76,1.55-8.64,2.31c-4.96,1.31-7.31,0.24-7.27-5.36c0.05-5.63-2.31-10.09-8.45-11.13
	c-6.03-1.02-9.7,2.81-12.41,7.3c-4.49,7.45-5.41,15.94-5.62,24.39c-0.31,12.36-0.35,24.74-0.11,37.1
	c0.23,11.76,3.24,14.84,15.2,15.43c4.3,0.21,6.36,0.67,6.46,5.82c0.11,5.59-2.65,5.53-6.64,5.51c-19.01-0.11-38.02,0.03-57.03-0.14
	c-2.74-0.02-7.11,2.09-7.24-3.8c-0.09-4.19-0.28-7.5,5.61-7.87c8.11-0.51,11.43-6.24,11.5-13.66c0.19-21.11,0.21-42.23-0.03-63.34
	c-0.08-6.96-2.99-12.59-11.05-12.75c-6.04-0.12-4.42-4.23-4.72-7.57c-0.43-4.77,2.82-4.38,5.9-4.37c9.05,0.02,18.15,0.57,27.14-0.17
	c7.41-0.61,11.32,1.61,12.08,9.14C1073.39,139.73,1073.39,142.34,1076.19,144.26z"/>
<g>
	<path class="st0" d="M499.39,305.75c2.88,2.33,4.65,5.54,5.26,9.53h-5.87c-0.66-2.66-1.94-4.65-3.82-5.93
		c-1.88-1.27-4.21-1.88-7.09-1.88c-4.27,0-7.48,1.44-9.64,4.38c-2.05,2.66-3.05,6.31-3.05,10.91c0,4.76,1,8.42,2.99,11.02
		c2.11,2.77,5.37,4.15,9.81,4.15c2.88,0,5.32-0.72,7.2-2.16c1.99-1.55,3.38-3.88,4.15-6.98h5.87c-0.89,4.6-2.93,8.2-6.2,10.8
		c-3.05,2.44-6.7,3.66-10.97,3.66c-6.48,0-11.35-2.11-14.62-6.2c-2.88-3.55-4.27-8.31-4.27-14.29c0-5.87,1.44-10.64,4.43-14.35
		c3.32-4.21,8.09-6.26,14.4-6.26C492.58,302.15,496.4,303.32,499.39,305.75z"/>
	<path class="st0" d="M541.82,316.22c1.72,1.83,2.6,4.49,2.6,7.98v18.28h-5.43v-4.04c-1.11,1.44-2.49,2.6-4.15,3.43
		c-1.88,0.89-4.1,1.38-6.65,1.38c-2.99,0-5.32-0.78-6.98-2.27c-1.83-1.5-2.71-3.43-2.71-5.82c0-3.21,1.27-5.71,3.82-7.42
		c2.33-1.66,5.65-2.49,9.86-2.6l6.43-0.17v-1.16c0-3.99-2.16-5.98-6.48-5.98c-1.83,0-3.32,0.33-4.43,1
		c-1.33,0.78-2.16,1.94-2.49,3.55l-5.82-0.5c0.61-3.1,2.16-5.43,4.6-6.87c2.11-1.33,4.99-1.94,8.53-1.94
		C536.72,313.07,539.83,314.12,541.82,316.22z M532.57,329.41c-5.37,0.11-8.03,1.99-8.03,5.54c0,1.11,0.44,1.99,1.39,2.71
		c0.89,0.72,2.11,1.11,3.6,1.11c2.49,0,4.6-0.78,6.37-2.27c1.77-1.5,2.71-3.38,2.71-5.6v-1.66L532.57,329.41z"/>
	<path class="st0" d="M576.99,313.79v5.87c-1.44-0.44-2.82-0.61-4.15-0.61c-1.77,0-3.38,0.72-4.76,2.16
		c-1.5,1.55-2.22,3.6-2.22,6.09v15.18h-5.87v-28.64h5.87v4.32c0.72-1.55,1.66-2.71,2.77-3.49c1.33-1.11,2.88-1.61,4.65-1.61
		C574.72,313.07,575.99,313.29,576.99,313.79z"/>
	<path class="st0" d="M596.54,303.48c0.78,0.72,1.16,1.66,1.16,2.83c0,1.16-0.44,2.11-1.22,2.88c-0.78,0.72-1.77,1.11-2.88,1.11
		c-1.16,0-2.11-0.39-2.88-1.11c-0.78-0.78-1.16-1.77-1.16-2.88c0-1.16,0.39-2.11,1.16-2.83c0.78-0.78,1.72-1.11,2.88-1.11
		S595.77,302.71,596.54,303.48z M596.54,313.84v28.64h-5.87v-28.64H596.54z"/>
	<path class="st0" d="M638.53,324.81v17.67h-5.87v-17.17c0-4.87-2.27-7.31-6.7-7.31c-1.66,0-3.16,0.55-4.37,1.77
		c-1.33,1.33-2.16,3.16-2.38,5.48v17.23h-5.87v-28.64h5.87v3.55c1.11-1.44,2.38-2.49,3.82-3.21c1.44-0.78,3.05-1.11,4.82-1.11
		C634.93,313.07,638.53,316.94,638.53,324.81z"/>
	<path class="st0" d="M674.75,317.66v-3.82h5.87v26.76c0,9.08-4.49,13.63-13.35,13.63c-3.99,0-7.03-0.78-9.14-2.27
		c-2.11-1.55-3.38-3.88-3.93-7.04h5.87c0.33,1.66,1,2.88,2.11,3.6c1.05,0.66,2.77,1.05,5.1,1.05c4.99,0,7.48-2.71,7.48-8.09v-4.43
		c-2.11,3.16-4.99,4.76-8.75,4.76c-3.88,0-7.03-1.33-9.42-3.93c-2.44-2.6-3.6-6.04-3.6-10.36c0-4.32,1.16-7.76,3.6-10.41
		c2.38-2.71,5.54-4.04,9.42-4.04C669.77,313.07,672.65,314.56,674.75,317.66z M661.12,320.43c-1.44,1.66-2.11,4.04-2.11,7.09
		c0,2.77,0.55,4.99,1.66,6.59c1.28,1.88,3.32,2.88,6.2,2.88c2.49,0,4.43-0.83,5.87-2.49c1.33-1.72,2.05-4.04,2.05-6.98
		c0-2.99-0.72-5.37-2.05-7.09c-1.44-1.77-3.38-2.6-5.87-2.6S662.45,318.66,661.12,320.43z"/>
	<path class="st0" d="M740.72,302.93v4.99h-5.15c-0.94,0-1.66,0.22-2.11,0.72c-0.44,0.44-0.66,1.22-0.66,2.27v2.94h7.53v4.82h-7.53
		v23.82h-5.81v-23.82h-6.59v-4.82h6.59v-3.1c0-2.44,0.66-4.38,1.99-5.71c1.33-1.44,3.21-2.11,5.76-2.11H740.72z"/>
	<path class="st0" d="M776.78,317.39c2.55,2.83,3.88,6.43,3.88,10.8c0,4.32-1.27,7.92-3.82,10.69c-2.66,2.88-6.15,4.38-10.47,4.38
		s-7.81-1.5-10.47-4.38c-2.55-2.77-3.82-6.37-3.82-10.69c0-4.38,1.27-7.98,3.88-10.8c2.6-2.88,6.09-4.32,10.41-4.32
		S774.17,314.51,776.78,317.39z M760.05,321.1c-1.33,1.83-1.94,4.21-1.94,7.09s0.61,5.21,1.94,7.04c1.5,2.1,3.6,3.21,6.32,3.21
		c2.72,0,4.82-1.11,6.37-3.21c1.33-1.88,1.99-4.21,1.99-7.04c0-2.88-0.66-5.26-1.99-7.09c-1.55-2.16-3.66-3.21-6.37-3.21
		C763.65,317.89,761.54,318.94,760.05,321.1z"/>
	<path class="st0" d="M812.11,313.79v5.87c-1.44-0.44-2.82-0.61-4.15-0.61c-1.77,0-3.38,0.72-4.76,2.16
		c-1.5,1.55-2.22,3.6-2.22,6.09v15.18h-5.87v-28.64h5.87v4.32c0.72-1.55,1.66-2.71,2.77-3.49c1.33-1.11,2.88-1.61,4.65-1.61
		C809.84,313.07,811.12,313.29,812.11,313.79z"/>
	<path class="st0" d="M874.71,317.83c2.22,2.88,3.38,6.87,3.43,11.97h-21.72c0.22,2.77,0.94,4.93,2.27,6.43
		c1.33,1.44,3.16,2.22,5.48,2.22c2.05,0,3.71-0.5,4.99-1.44c1-0.78,1.83-2.05,2.6-3.71h5.87c-0.66,2.66-1.94,4.93-3.94,6.7
		c-2.49,2.16-5.65,3.27-9.47,3.27c-4.21,0-7.59-1.33-10.03-3.93c-2.66-2.77-3.99-6.48-3.99-11.19c0-4.27,1.22-7.81,3.77-10.69
		c2.44-2.94,5.81-4.38,10.02-4.38C868.67,313.07,872.27,314.62,874.71,317.83z M858.92,319.82c-1.22,1.27-2.05,3.1-2.38,5.54h15.46
		c-0.55-4.99-3.16-7.48-7.81-7.48C861.96,317.89,860.25,318.49,858.92,319.82z"/>
	<path class="st0" d="M895.3,313.84l7.2,21.33l7.2-21.33h6.37l-10.64,28.64h-5.87l-10.64-28.64H895.3z"/>
	<path class="st0" d="M951.36,317.83c2.22,2.88,3.38,6.87,3.43,11.97h-21.72c0.22,2.77,0.94,4.93,2.27,6.43
		c1.33,1.44,3.16,2.22,5.48,2.22c2.05,0,3.71-0.5,4.99-1.44c1-0.78,1.83-2.05,2.6-3.71h5.87c-0.66,2.66-1.94,4.93-3.94,6.7
		c-2.49,2.16-5.65,3.27-9.47,3.27c-4.21,0-7.59-1.33-10.03-3.93c-2.66-2.77-3.99-6.48-3.99-11.19c0-4.27,1.22-7.81,3.77-10.69
		c2.44-2.94,5.81-4.38,10.02-4.38C945.33,313.07,948.92,314.62,951.36,317.83z M935.58,319.82c-1.22,1.27-2.05,3.1-2.38,5.54h15.46
		c-0.55-4.99-3.16-7.48-7.81-7.48C938.62,317.89,936.91,318.49,935.58,319.82z"/>
	<path class="st0" d="M985.65,313.79v5.87c-1.44-0.44-2.82-0.61-4.15-0.61c-1.77,0-3.38,0.72-4.76,2.16
		c-1.5,1.55-2.22,3.6-2.22,6.09v15.18h-5.87v-28.64h5.87v4.32c0.72-1.55,1.66-2.71,2.77-3.49c1.33-1.11,2.88-1.61,4.65-1.61
		C983.38,313.07,984.65,313.29,985.65,313.79z"/>
	<path class="st0" d="M1001.43,313.84l7.87,20.88l7.53-20.88h6.43l-15.56,39.61h-6.26l4.99-11.63l-11.35-27.97H1001.43z"/>
	<path class="st0" d="M1087.29,317.55c2.22,2.77,3.32,6.31,3.32,10.75c0,4.21-1.11,7.7-3.27,10.47c-2.33,2.99-5.59,4.49-9.69,4.49
		c-3.55,0-6.43-1.66-8.75-4.99v15.18h-5.87v-39.61h5.48v3.43c1.99-2.83,4.99-4.21,8.86-4.21
		C1081.58,313.07,1084.85,314.56,1087.29,317.55z M1070.56,320.88c-1.22,1.77-1.83,4.15-1.83,7.09v0.5c0,3.05,0.72,5.54,2.27,7.42
		c1.33,1.72,3.1,2.6,5.32,2.6c2.88,0,4.99-0.94,6.37-2.83c1.22-1.77,1.88-4.21,1.88-7.37s-0.61-5.6-1.72-7.37
		c-1.39-2.11-3.49-3.1-6.37-3.1C1073.94,317.83,1071.94,318.83,1070.56,320.88z"/>
	<path class="st0" d="M1127.22,316.22c1.72,1.83,2.6,4.49,2.6,7.98v18.28h-5.43v-4.04c-1.11,1.44-2.49,2.6-4.15,3.43
		c-1.88,0.89-4.1,1.38-6.65,1.38c-2.99,0-5.32-0.78-6.98-2.27c-1.83-1.5-2.71-3.43-2.71-5.82c0-3.21,1.27-5.71,3.82-7.42
		c2.33-1.66,5.65-2.49,9.86-2.6l6.43-0.17v-1.16c0-3.99-2.16-5.98-6.48-5.98c-1.83,0-3.32,0.33-4.43,1
		c-1.33,0.78-2.16,1.94-2.49,3.55l-5.82-0.5c0.61-3.1,2.16-5.43,4.6-6.87c2.1-1.33,4.99-1.94,8.53-1.94
		C1122.12,313.07,1125.23,314.12,1127.22,316.22z M1117.97,329.41c-5.37,0.11-8.03,1.99-8.03,5.54c0,1.11,0.44,1.99,1.39,2.71
		c0.89,0.72,2.11,1.11,3.6,1.11c2.49,0,4.6-0.78,6.37-2.27c1.77-1.5,2.71-3.38,2.71-5.6v-1.66L1117.97,329.41z"/>
	<path class="st0" d="M1148.82,313.84l6.04,21.66l5.87-21.66h5.43l5.87,21.66l6.04-21.66h6.48l-9.69,28.64h-5.43l-5.98-21.44
		l-5.98,21.44h-5.43l-9.69-28.64H1148.82z"/>
	<path class="st0" d="M1204.15,335.72c0.78,0.78,1.22,1.77,1.22,2.99c0,1.11-0.44,2.11-1.22,2.94c-0.83,0.72-1.83,1.11-2.93,1.11
		c-1.22,0-2.16-0.39-2.88-1.11c-0.83-0.83-1.22-1.83-1.22-2.94c0-1.22,0.39-2.22,1.22-2.99c0.72-0.78,1.66-1.16,2.88-1.16
		C1202.32,334.56,1203.32,334.95,1204.15,335.72z"/>
</g>
</svg>
