<?xml version="1.0" encoding="utf-8"?>
<!-- Generator: Adobe Illustrator 24.2.0, SVG Export Plug-In . SVG Version: 6.00 Build 0)  -->
<svg version="1.1" id="圖層_1" xmlns="http://www.w3.org/2000/svg" xmlns:xlink="http://www.w3.org/1999/xlink" x="0px" y="0px"
	 viewBox="0 0 1280 1280" style="enable-background:new 0 0 1280 1280;" xml:space="preserve">
<style type="text/css">
	.st0{fill:#FFFFFF;}
</style>
<path class="st0" d="M576.04,819.05c7.92-32.31,14.28-64.04,10.01-96.84c-3.89-29.74-9.03-59.24-15.32-88.6
	c-3.75-17.58-7.02-35.79-5.73-53.99c1.67-23.63,7.26-46.18,23.18-64.9c6.64-7.82,14.07-14.32,23.7-18.38
	c11.95-5.07,23.9-10.28,35.3-16.5c45.76-24.88,67.09-69.7,58.3-120.91c-0.76-4.48-2.61-6.78-7.09-7.09
	c-1.74-0.1-3.41-0.69-5.14-0.83c-31.62-3.06-54.31-18.69-68.83-47.15c-12.99-25.47-37.14-37.11-62.09-47.22
	c-7.19-2.92-14.66-5.42-22.24-7.16c-5.73-1.29-7.02-4.07-7.09-9.52c-0.35-32.14-1.08-64.24-1.67-96.38c-0.1-5.18,0-10.35,0-18.55
	c-14,11.4-25.95,20.99-37.8,30.72c-11.74,9.66-23.35,19.49-36.45,30.44c0-4.52,0-7.26,0-10.01c0-44.3-0.03-88.57,0-132.87
	c0-18.21,7.78-26.65,25.95-26.68c85.68-0.17,171.37-0.17,257.05,0c16.37,0.03,26.09,10.53,26.09,26.82c0.03,64.28,0,128.52,0,192.8
	c0,18.28,8.55,27.07,26.68,27.07c59.35,0.07,118.69,0.03,178.04,0.03c22.69,0,31.44,8.69,31.44,31.13c0,82.21-0.1,164.42,0.1,246.62
	c0.03,12.47-4.41,21.58-15.43,27.48c-2.33,1.25-4.45,1.95-7.19,1.95c-62.23-0.17-124.46-0.28-186.69-0.21
	c-18.45,0-26.93,8.72-26.93,26.89c0,65.15,0,130.26-0.03,195.41c0,15.36-9.8,26.27-24.77,26.34
	C686.5,819.19,631.5,819.05,576.04,819.05z"/>
<path class="st0" d="M506.9,182.89c0,25.99,0.14,52.01-0.1,78c-0.07,5.87,1.42,8.55,7.82,9.69c13.93,2.5,27.48,6.74,40.72,11.88
	c21.92,8.51,40.03,20.99,51.46,42.7c14.11,26.82,36.38,43.88,66.82,48.78c6.05,0.97,7.37,3.72,7.26,9.24
	c-0.7,29.6-14.63,51.74-38.29,68.34c-10.94,7.68-23.21,13.06-35.58,17.89c-38.36,15.01-55.94,45.93-64.7,83.63
	c-7.89,34.09-1.01,67.58,5.8,100.8c6.12,29.88,11.88,59.8,12.33,90.27c0.31,21.26-3.02,42.35-8.34,63.06
	c-1.95,7.54-7.89,7.23-12.99,6.43c-12.4-1.95-24.98-2.05-37.39-3.51c-21.89-2.57-42.98-8.13-63.38-17.03
	c-30.78-13.41-58.65-31.44-84.43-52.54c-21.89-17.89-42.15-37.59-60.21-59.76c-21.09-25.89-40.69-52.64-57.89-81.17
	c-3.2-5.32-4.52-8.69,2.57-12.96c22.52-13.55,37.87-34.64,53.37-55.07c19.18-25.29,31.76-53.37,37.63-85.4
	c6.22-33.84,15.95-67.13,28.7-99.41c7.47-18.94,14.8-37.94,26.79-54.38c12.54-17.2,27.87-32,44.37-45.66
	c8.34-6.91,15.39-15.36,23.9-22.27c17.09-13.97,33.81-28.35,50.69-42.56C504.81,182.27,505.86,182.58,506.9,182.89z"/>
<path class="st0" d="M375.04,263.33c-15.46,15.77-24.25,33.18-32.21,50.94c-17.76,39.47-30.47,80.75-38.15,123.21
	c-7.23,39.92-26.3,72.69-53.27,101.77c-5.66,6.12-11.12,12.51-17.2,18.24c-6.64,6.29-11.5,4.41-13.03-4.79
	c-0.56-3.37-0.24-6.91-0.24-10.39c0-83.6,0-167.2,0-250.79c0-19.98,7.51-28,27.14-28.11C289.42,263.22,330.81,263.33,375.04,263.33z
	"/>
<path class="st0" d="M731.46,939.13c-17.48,41.63-34.78,82.9-52.12,124.15c-1.56,3.68-3.51,7.19-4.97,10.91
	c-1.04,2.68-2.99,3.44-5.42,3.2c-2.22-0.21-4.03-0.73-5.14-3.54c-11.12-27.73-22.48-55.38-34.15-84.01
	c-5.56,8.23-7.51,17.13-10.74,25.33c-7.47,18.8-14.14,37.87-21.23,56.81c-0.94,2.5-1.42,5.35-5.46,5.66
	c-4.55,0.35-5.04-2.71-6.18-5.49c-7.61-18.52-15.25-37.04-22.76-55.59c-9.35-23.04-17.23-46.63-28.6-68.83
	c-4.55-8.93-4.17-9.42,5.59-9.28c5.14,0.07,11.64-2.22,15.08,1.08c2.88,2.78,1.81,9.31,3.54,13.76c9.28,24.22,18.9,48.3,28.42,72.41
	c2.29,5.77,4.62,11.5,7.09,17.58c7.3-5.04,6.98-12.99,9.55-19.25c8.34-20.33,15.74-41.03,23.11-61.74c1.18-3.34,1.98-5.77,5.8-5.98
	c4.1-0.21,4.03,3.02,5.11,5.66c10.91,26.68,21.96,53.33,33.01,79.98c0.42,1.01,1.29,1.84,2.33,3.3c6.46-7.23,7.68-16.47,11.19-24.5
	c8.62-19.74,16.3-39.85,24.36-59.83c1.15-2.85,2.15-5.77,3.16-8.65C716.76,938.47,716.76,938.47,731.46,939.13z"/>
<path class="st0" d="M841.05,1073.91c3.41-44.86,3.37-89.68,0-135.13c16.26,2.05,33.32-4.38,50.66-0.07
	c14.87,3.68,27.28,14.21,28.98,27.21c2.15,16.68-1.18,32.14-16.61,41.45c-6.71,4.03-5.7,6.29-1.95,11.4
	c11.12,14.98,21.72,30.3,32.59,45.48c2.54,3.54,5.7,6.46,9.59,10.11c-8.06,0-16.12,0-24.22,0c-1.15,0-1.91-0.38-2.54-1.67
	c-9.07-18.69-23.18-34.02-34.61-51.15c-2.43-3.65-17.27-6.71-20.74-4.55c-1.46,0.9-1.56,2.33-1.6,3.72
	c-0.31,17.62,0.03,35.2,2.12,53.16C855.4,1073.91,847.75,1073.91,841.05,1073.91z M874.61,943.89
	c-14.07,0.21-14.07,0.21-14.07,14.45c0,14.7,0,29.43,0,44.13c0,2.78-0.59,5.32,3.68,6.39c14.94,3.89,31.17-4.55,36.07-19.28
	c2.33-6.98,2.5-14.14,1.77-21.37C900.43,951.64,891.32,943.65,874.61,943.89z"/>
<path class="st0" d="M399.92,1074.39c14.66-30.47,28.14-60.14,40.79-90.2c6.22-14.77,13.45-29.12,20.33-43.64
	c1.15-2.4,1.49-5.39,5.63-5.28c3.96,0.1,5.39,2.02,6.81,5.21c12.96,29.22,26.16,58.34,39.05,87.59
	c6.78,15.36,13.34,30.78,21.68,45.41c-0.76,0.42-1.22,0.83-1.67,0.83c-7.23,0-15.88,2.33-21.23-0.87
	c-4.17-2.5-4.03-11.95-6.25-18.14c-1.32-3.68-4.66-6.91-5.14-10.6c-2.19-15.53-12.47-16.33-24.91-15.46
	c-11.5,0.8-23.14,0.49-34.71,0.1c-4.9-0.17-7.64,1.63-9.07,5.98c-4.03,12.13-12.33,22.76-12.51,36.2c-0.03,2.47-1.36,2.88-3.23,2.88
	C410.44,1074.39,405.37,1074.39,399.92,1074.39z M463.71,960.84c-8.37,19.25-16.02,36.66-23.45,54.17
	c-0.97,2.26-4.45,6.18,2.22,6.15c15.53-0.07,31.06-0.03,47.91-0.03C481.29,1000.63,472.85,981.52,463.71,960.84z"/>
<path class="st0" d="M316.53,938.78c15.15,1.6,30.89-3.75,46.73-0.9c18.55,3.3,30.82,15.04,33.04,30.58
	c2.99,20.78-5.32,38.05-22.2,47.36c-10.01,5.52-20.64,6.95-31.72,6.25c-3.96-0.24-6.53-0.03-6.5,5.18
	c0.14,15.5,0.42,30.99,2.4,46.77c-7.47,0-14.94,0-21.89,0C319.97,1029.26,319.76,984.47,316.53,938.78z M335.98,979.89
	c0,9.24,0.31,18.52-0.14,27.76c-0.28,5.49,2.19,6.91,6.95,7.37c15.71,1.56,28.49-6.84,33.04-21.92c2.57-8.48,2.5-17.13,1.29-25.75
	c-2.64-18.83-19.21-28.73-37.25-22.65c-3.58,1.22-4,3.44-3.96,6.57C336.05,960.78,335.98,970.33,335.98,979.89z"/>
<path class="st0" d="M814.88,938.33c-3.02,11.47-2.92,10.74-14.45,9.42c-10.25-1.18-20.71-0.49-31.06-0.63
	c-3.41-0.03-4.38,1.77-4.34,4.93c0.1,14.18,0.07,28.35,0.14,42.49c0,2.68,0.1,5.25,4.17,4.83c10.04-0.97,20.08-1.84,30.12-2.33
	c2.22-0.1,6.84-3.82,6.71,2.36c-0.07,4.17,0.9,10.15-5.84,10.01c-11.54-0.21-23.04-1.25-35.3-1.98c0,18,0.03,36.17-0.03,54.34
	c-0.03,4.62,3.09,3.93,5.94,3.96c13.03,0.14,25.78-1.88,38.53-4.41c2.22-0.45,7.09-3.09,6.6,1.42c-0.45,4,2.15,11.78-5.84,11.88
	c-20.81,0.24-41.63-0.17-62.44-0.21c-3.37,0-2.74-0.9-2.43-3.75c4.27-37.63,1.77-75.43,1.98-113.17c0.03-6.29-5.52-14.32,0.03-18.28
	c4.24-3.06,12.3-0.87,18.66-0.9C782.22,938.3,798.41,938.33,814.88,938.33z"/>
<g>
	<path class="st0" d="M1129.09,1199.93c-3.75,11.22-6.71,20.47-9.94,29.64c-0.97,2.74-1.15,6.36-5.84,6.18
		c-4.27-0.17-5-2.85-6.05-6.01c-3.79-11.47-7.92-22.83-11.47-34.36c-0.52-1.74-4.31-4.9,0.24-6.32c3.44-1.08,6.88-0.56,8.17,4.03
		c2.26,8.03,4.73,15.98,7.19,23.94c0.42,1.32,1.25,2.54,2.19,4.38c4.93-8.62,6.46-17.79,9.76-26.27c1.11-2.81,1.15-6.32,5.63-6.43
		c4.86-0.14,5.46,3.41,6.46,6.67c2.85,8.96,5.63,17.96,9.14,29.29c3.41-11.6,5.94-20.81,8.79-29.88c1.01-3.16,2.02-7.16,6.88-5.91
		c5.84,1.49,1.81,5.21,1.15,7.51c-3.27,11.33-6.91,22.55-10.53,33.77c-0.97,3.06-2.02,6.01-6.39,5.56
		c-3.93-0.42-4.79-2.61-5.77-6.15C1136.18,1220.22,1132.8,1211.15,1129.09,1199.93z"/>
	<path class="st0" d="M397.8,1188.71c5.77,0.56,12.33,1.08,18.9,1.88c3.44,0.42,4.07,3.06,1.42,4.48c-2.78,1.49-3.44,2.99-3.65,5.91
		c-0.87,11.95-6.32,16.89-18.1,17.34c-2.71,0.1-7.3-2.12-7.44,2.95c-0.1,4.48,4.17,3.68,7.23,4.03c4.27,0.49,8.55,1.08,12.79,1.67
		c4.55,0.63,8.1,2.43,9.9,7.16c1.84,4.9-0.38,8.48-3.41,11.71c-7.75,8.27-28,10.88-36.52,0.24c-1.81-2.26-3.65-5.39-2.19-6.84
		c6.22-6.08,2.61-14.56,6.05-21.02c1.11-2.12,1.08-3.02-0.14-5.07C374.34,1198.96,380.53,1188.64,397.8,1188.71z M407.59,1203.16
		c-0.87-5.66-4-9.14-10.22-9.21c-6.12-0.07-10.22,2.95-10.28,9.07c-0.03,6.01,4.07,9.66,9.97,9.62
		C402.76,1212.61,406.93,1209.76,407.59,1203.16z M397.41,1232.03c-3.13,0.49-6.12-0.63-8.79,1.04c-2.64,1.67-4.55,4-3.51,7.19
		c1.77,5.52,6.67,5.87,11.33,5.77c5.87-0.1,14.14,1.15,14.25-7.12C410.79,1230.89,402.24,1233.49,397.41,1232.03z"/>
	<path class="st0" d="M93.36,1206.53c0.73-36.07,29.19-44.23,49.2-34.47c2.22,1.08,6.78,1.91,5.11,6.46
		c-1.98,5.39-5.7,2.43-8.51,1.11c-16.92-8.13-30.3,0.17-34.75,12.75c-3.44,9.73-0.14,24.67,6.64,30.68
		c8.06,7.12,17.65,7.75,29.53,0.63c3.79-2.26,5.46-0.94,6.95,1.49c2.15,3.44-1.29,4.34-3.34,5.63c-10.91,6.84-22.31,9.28-34.19,2.74
		C97.98,1226.89,94.36,1215.43,93.36,1206.53z"/>
	<path class="st0" d="M985.83,1232.59c0,5.25-0.03,9.56,0,13.86c0.03,3.13-1.01,4.83-4.48,4.79c-3.68-0.03-4.13-2.22-4.13-5.11
		c0.03-17.62,0.03-35.2,0-52.81c0-2.54,1.36-5.91,3.47-4.31c6.15,4.62,11.22-0.14,16.61-0.87c8.27-1.11,14.98,1.67,18.14,9.28
		c6.08,14.56,3.68,32.35-11.64,38.05C997.19,1238.01,995.8,1238.29,985.83,1232.59z M1010.19,1211.5c0.07-12.89-8.37-20.15-18-15.43
		c-7.05,3.47-9.62,26.06-3.47,30.99c1.08,0.87,2.5,1.36,3.86,1.77C1002.3,1231.9,1010.12,1224.22,1010.19,1211.5z"/>
	<path class="st0" d="M532.02,1188.71c13.79-2.22,22.93,11.26,23.07,23.24c0.21,14.21-9.35,23.73-23.56,23.7
		c-14.28-0.03-21.51-8.06-21.47-23.87C510.06,1196.21,517.22,1188.71,532.02,1188.71z M518.75,1211.81
		c-0.07,11.08,4.62,17.06,13.48,17.16c8.76,0.1,14.14-6.29,14.14-16.82c0-10.32-5.73-17.69-13.79-17.69
		C524.03,1194.47,518.82,1201.01,518.75,1211.81z"/>
	<path class="st0" d="M207.77,1218.66c0,3.06,0,5.35,0,7.68c-0.03,5.98,1.22,13.03-8.89,6.95c-4-2.4-7.82,2.33-11.85,3.34
		c-7.4,1.84-15.01-2.05-17.06-9.21c-1.77-6.22,2.26-13.13,9.31-15.32c3.82-1.18,7.82-1.84,11.81-2.43c3.3-0.49,7.99,0.49,7.75-4.52
		c-0.21-4.52-1.95-9.24-7.89-9.52c-4-0.17-8.03-0.45-11.5,2.54c-1.56,1.36-4.07,1.63-5.49-0.17c-1.53-1.95-0.17-3.82,1.42-5.21
		c5.91-5.11,12.75-5.98,20.08-4.1c6.15,1.6,9.31,5.59,11.01,11.81C208.15,1206.84,207.39,1213.1,207.77,1218.66z M186.99,1230.4
		c7.16-0.07,12.09-4.48,12.27-10.46c0.1-4.34-1.95-5.8-5.77-5.07c-6.05,1.15-13.62,0.87-14.7,9.03
		C178.17,1228.84,182.48,1230.44,186.99,1230.4z"/>
	<path class="st0" d="M1076.27,1217.51c0,3.65,0,6.25,0,8.86c0,6.08,1.15,12.99-8.93,6.91c-3.96-2.4-7.78,2.36-11.85,3.37
		c-7.09,1.74-14.28-1.67-16.71-8.44c-2.26-6.29,1.25-13.38,8.27-15.74c4.07-1.36,8.34-2.08,12.58-2.78c3.3-0.52,7.96,0.49,7.68-4.55
		c-0.24-4.52-1.95-9.24-7.92-9.49c-4-0.17-8.03-0.42-11.47,2.57c-1.56,1.36-4.07,1.63-5.49-0.21c-1.49-1.95-0.14-3.86,1.49-5.25
		c5.94-5.07,12.75-5.98,20.08-4.03c6.15,1.6,9.28,5.63,10.98,11.85C1076.59,1206.6,1075.89,1212.58,1076.27,1217.51z
		 M1055.91,1230.4c6.12,0.17,11.57-4.13,11.85-9.94c0.17-3.79-0.8-5.8-5.21-5.73c-7.99,0.1-15.88,4.55-15.39,9.49
		C1047.57,1228.7,1050.74,1230.4,1055.91,1230.4z"/>
	<path class="st0" d="M774.09,1211.78c0.03-12.65,6.39-21.65,15.77-23c12.99-1.88,21.44,2.95,25.02,14.25
		c1.74,5.49,1.08,8.86-5.94,8.72c-6.88-0.14-13.76,0.9-20.67,0.94c-5.7,0.03-6.25,2.78-4.76,7.19c2.57,7.47,10.84,11.15,19.11,8.37
		c1.88-0.63,3.54-1.98,5.42-2.57c2.05-0.66,4.2-0.24,5.18,1.95c1.15,2.54-0.9,3.54-2.68,4.55c-8.34,4.69-16.82,7.33-25.85,1.81
		C776.11,1228.66,773.5,1220.6,774.09,1211.78z M794.66,1208.06c3.93-2.74,11.85,3.93,12.27-4.97c0.31-6.36-4.97-9.17-11.33-9.14
		c-6.91,0-12.02,4.31-11.92,10.11C783.75,1211.53,791.12,1205.52,794.66,1208.06z"/>
	<path class="st0" d="M654.22,1212.47c0.03-13.34,6.43-22.34,15.81-23.7c12.99-1.88,21.47,2.95,25.02,14.28
		c1.74,5.52,1.01,8.93-6.01,8.65c-6.88-0.24-13.76,0-20.67,0.8c-6.39,0.73-6.18,3.65-4.27,8.13c3.16,7.37,10.42,10.35,18.69,7.61
		c1.36-0.45,2.64-1.11,3.89-1.84c2.61-1.49,5.28-1.67,6.67,1.22c1.39,2.95-1.49,3.68-3.44,4.86c-8.44,5.21-17.16,6.71-25.82,1.04
		C656.1,1228.32,653.56,1220.29,654.22,1212.47z M674.37,1207.96c4.1-2.36,11.71,3.61,12.65-4.45c0.73-6.32-4.52-9.45-10.88-9.56
		c-6.12-0.1-13.79,5.77-12.68,10.49C664.99,1210.74,670.83,1206.01,674.37,1207.96z"/>
	<path class="st0" d="M926.55,1189.54c-8.37,19.11-16.68,37.77-24.74,56.53c-2.19,5.07-5.56,5.98-11.71,4.31
		c13.27-12.82,6.5-25.26,0.38-37.8c-2.64-5.42-5.11-10.94-7.47-16.5c-1.01-2.29-3.75-5.52-0.31-7.05c3.47-1.56,7.26-0.52,9,4.07
		c2.54,6.71,5.35,13.34,8.27,19.91c0.87,1.95,1.29,4.93,4.34,4.62c2.4-0.21,2.71-2.78,3.44-4.52c2.74-6.32,5.42-12.72,7.89-19.14
		C917.45,1189.4,920.44,1187.73,926.55,1189.54z"/>
	<path class="st0" d="M317.19,1211.78c0-6.08,0.07-12.16,0-18.24c-0.03-4.48,2.47-6.36,5.84-3.82c3.16,2.4,4.83,1.53,8.17,0.45
		c12.93-4.17,24.25-1.53,24.5,15.01c0.14,8.1,0.07,16.19,0.03,24.32c0,2.81,0.52,6.22-4.07,5.98c-4-0.21-3.34-3.3-3.37-5.77
		c-0.1-7.82,0.59-15.7-0.35-23.42c-1.49-12.16-8.41-12.16-16.61-9.62c-3.47,1.08-6.01,3.89-5.73,8.62c0.45,7.19,0.35,14.49,0,21.68
		c-0.14,3.2,2.36,8.44-4,8.55c-7.09,0.14-4.07-5.63-4.38-9C316.84,1221.65,317.19,1216.71,317.19,1211.78z"/>
	<path class="st0" d="M712.35,1189.47c6.05-2.05,9.1-0.24,11.05,5.18c3.23,9.03,7.12,17.86,11.61,28.84
		c4.79-11.54,9.03-20.78,12.44-30.33c1.39-3.89,3.44-5.28,6.88-4.24c5.04,1.49,1.49,4.83,0.69,6.88
		c-4.52,11.78-9.24,23.49-14.21,35.09c-2.36,5.56-9.14,6.81-11.15,2.08C723.54,1218.66,718.08,1203.99,712.35,1189.47z"/>
	<path class="st0" d="M471.84,1215.46c0-3.75-0.07-7.51,0.03-11.26c0.1-4.38,0.73-8.86-5.77-9.21c-1.39-0.07-2.5-1.39-2.61-3.02
		c-0.1-1.74,0.87-2.92,2.47-2.81c6.15,0.45,5.7-3.72,6.15-7.89c0.97-9.56,7.19-14.32,16.68-13.27c2.36,0.28,4.97,0.59,4.86,3.65
		c-0.1,2.43-2.29,3.13-4.45,3.09c-3.09-0.03-5.7,0.8-7.47,3.51c-3.34,5.04-1.08,10.04,4.83,10.74c2.4,0.28,5.8-0.83,5.94,3.13
		c0.21,4.76-3.72,3.65-6.25,3.51c-4.73-0.24-5.91,1.95-5.8,6.22c0.21,9.24,0.07,18.48,0.03,27.73c0,2.85,0.49,5.94-4,6.12
		c-5,0.21-4.62-3.09-4.62-6.32C471.84,1224.7,471.84,1220.08,471.84,1215.46z"/>
	<path class="st0" d="M841.36,1188.85c1.95-0.07,3.27,0.38,3.75,2.02c1.39,4.66,3.65,2.5,5.49,0.56c2.85-2.95,6.36-3.89,10.11-3.3
		c2.19,0.35,5.56,0.1,5.42,4.1c-0.1,3.27-2.08,4.38-4.9,5c-14.35,3.34-14.32,3.37-14.32,17.69c0,5.21-0.03,10.39,0,15.6
		c0.03,2.92-0.59,5.04-4.17,5.11c-3.47,0.07-4.45-1.74-4.41-4.83c0.07-12.4,0-24.81,0.03-37.25
		C838.34,1191.24,838.23,1188.71,841.36,1188.85z"/>
	<path class="st0" d="M232.09,1211.71c0-6.05,0.03-12.13,0-18.17c-0.03-4.48,3.75-6.81,5.59-3.79c3.93,6.46,5.56,2.08,8.72-0.03
		c2.19-1.46,5.21-2.61,8.17-1.63c2.22,0.73,5.52,0.21,5.32,4.24c-0.17,3.3-2.19,4.31-4.97,4.93c-14.25,3.2-14.25,3.23-14.25,17.76
		c0,5.21-0.03,10.39,0,15.6c0.03,2.99-0.69,5-4.27,5.04c-3.54,0.03-4.38-1.88-4.34-4.9
		C232.13,1224.39,232.09,1218.03,232.09,1211.71z"/>
	<path class="st0" d="M577.74,1211.53c0-6.05,0.07-12.13-0.03-18.17c-0.07-3.93,3.51-6.39,5.04-3.96c4.31,6.71,6.6,1.91,10.22-0.1
		c1.95-1.11,4.69-2.29,7.4-1.18c2.22,0.9,5.49,0.42,5.14,4.41c-0.28,3.3-2.36,4.2-5.14,4.79c-14.07,2.99-14.07,2.99-14.07,17.06
		c0,5.49-0.07,10.98,0,16.43c0.03,3.09-0.94,4.9-4.41,4.86c-3.65-0.03-4.2-2.15-4.17-5.07
		C577.78,1224.22,577.74,1217.86,577.74,1211.53z"/>
	<path class="st0" d="M281.02,1212.99c0-6.32,0.07-12.65-0.03-18.97c-0.03-3.41,0.83-5.49,4.79-5.32c3.86,0.17,3.82,2.71,3.82,5.39
		c0,12.06,0,24.11,0,36.2c0,2.71-0.03,5.18-3.86,5.32c-4.03,0.14-4.79-2.05-4.76-5.39C281.09,1224.49,281.02,1218.76,281.02,1212.99
		z"/>
	<path class="st0" d="M291.2,1173.77c-0.52,3.3-2.61,5.84-6.01,5.8c-3.3-0.03-6.08-2.36-5.87-5.94c0.17-3.2,1.88-5.91,5.94-5.77
		C288.94,1168.03,291.06,1169.74,291.2,1173.77z"/>
	<path class="st0" d="M1192.64,1230.09c-0.07,4.59-3.37,6.39-6.22,6.67c-3.58,0.35-5.35-2.92-5.49-6.39
		c-0.14-3.51,1.77-5.21,5.39-5.21C1190.07,1225.19,1192.39,1226.58,1192.64,1230.09z"/>
</g>
</svg>
